<svg xmlns="http://www.w3.org/2000/svg" viewBox="0 0 512 512" width="100%" height="100%">
  <rect width="512" height="512" rx="112" fill="#007bff"/>
  <path d="M424 280v-48l-40-8c-4-16-10-30-18-44l24-34-34-34-34 24c-14-8-28-14-44-18l-8-40h-48l-8 40c-16 4-30 10-44 18l-34-24-34 34 24 34c-8 14-14 28-18 44l-40 8v48l40 8c4 16 10 30 18 44l-24 34 34 34 34-24c14 8 28 14 44 18l8 40h48l8-40c16-4 30-10 44-18l34 24 34-34-24-34c8-14 14-28 18-44l40-8zm-168 40c-35.3 0-64-28.7-64-64s28.7-64 64-64 64 28.7 64 64-28.7 64-64 64z" fill="#ffffff"/>
</svg>
